<svg id="Object" xmlns="http://www.w3.org/2000/svg" viewBox="0 0 525.68 660.7"><defs><style>.cls-1{fill:#e6e7e8;}.cls-2{fill:#162344;}.cls-3{fill:#f6921e;}.cls-4{fill:none;}</style></defs><title>GB_logo</title><path class="cls-1" d="M581,146.47H424.15c-.11-.43-.23-.76-.33-1.22a62,62,0,0,1-.63-22.7c.33-2.12.86-4.22,1.28-6.36l1.85-6.12c.78-2,1.54-3.85,2.26-5.64s1.68-3.39,2.42-4.94a69.86,69.86,0,0,1,4.22-7.23c1.1-1.73,1.72-2.73,1.72-2.73l-2.49,2A70.65,70.65,0,0,0,428,97.21c-1.25,1.27-2.76,2.56-4.1,4.14l-4.27,5-4.13,5.81c-1.22,2.11-2.58,4.24-3.75,6.48-.88,1.92-1.88,3.84-2.69,5.82-.42-1.47-.8-2.91-1.28-4.42a134.48,134.48,0,0,0-6.39-16.34,107.54,107.54,0,0,0-8.51-15.09,61.56,61.56,0,0,0-4.64-6.35,58,58,0,0,0-4.54-5.3c-1.48-1.53-2.85-2.93-4.05-4.18l-3.41-2.89-2.94-2.46,1.87,3.35,2.09,3.78c.65,1.53,1.39,3.25,2.2,5.13a51.3,51.3,0,0,1,2.2,6.13,54.2,54.2,0,0,1,1.89,6.93A94.44,94.44,0,0,1,385.82,108a116.86,116.86,0,0,1,.12,15.17,130.1,130.1,0,0,1-1.42,13c-.6,3.74-1.26,6.78-1.79,8.79-.11.46-.21.82-.3,1.14-.28-.47-.56-.93-.87-1.49a44.07,44.07,0,0,1-4.79-13.69,35.1,35.1,0,0,1-.49-8.09,23.55,23.55,0,0,1,.39-3.84,18.4,18.4,0,0,1,.71-3.46,29.94,29.94,0,0,1,1.74-5.16l.82-2-1.65,1.35a32,32,0,0,0-4.21,3.93,23.09,23.09,0,0,0-2.54,3,29.29,29.29,0,0,0-2.53,3.73,43.77,43.77,0,0,0-4.25,9.1,58.4,58.4,0,0,0-3.11,17H224.93a50.1,50.1,0,0,0-50.05,50.05V462.31a50.23,50.23,0,0,0,20.35,40.28l178,131.3a49.84,49.84,0,0,0,59.41,0l178.06-131.3a50.23,50.23,0,0,0,20.35-40.28V196.52A50.11,50.11,0,0,0,581,146.47Zm16.31,338L419.29,615.72a27.36,27.36,0,0,1-32.61,0L208.62,484.42a27.49,27.49,0,0,1-11.17-22.11V259.16a14.71,14.71,0,0,1,14.72-14.71H593.81a14.71,14.71,0,0,1,14.71,14.71V462.31A27.49,27.49,0,0,1,597.35,484.42Z" transform="translate(-140.15 -67.43)"/><path class="cls-2" d="M242.73,212.6c0,3.19-.11,3.51-1.08,3.89a41.65,41.65,0,0,1-13.25,2.06c-15.2,0-25.74-6.82-25.74-21.2,0-9,4.7-14.77,9.73-17.63,5.57-3.3,11.41-3.57,15.52-3.57a55.47,55.47,0,0,1,8.76.75c1.84.22,3.63.6,5.2.65.48,0,.59.22.54.71s-.6,2.75-.6,10c0,.86-.22,1.13-.59,1.13s-.6-.43-.65-.86a8.37,8.37,0,0,0-.65-2.71c-1-3.67-5.84-6.27-13.36-6.27-4,0-7.25,1.14-9.68,3.89-2.11,2.38-3.41,6.38-3.41,11.69,0,9.68,4.65,20,16,20a5.75,5.75,0,0,0,3-.65,1.73,1.73,0,0,0,.65-1.46v-3.3c0-2.22,0-4.33-.06-6.33,0-3.08-.7-4.22-2.54-4.49-.7-.11-1.4-.16-2.32-.27-.44,0-.87-.22-.87-.54s.27-.54,1.14-.54c3.51,0,7.68.16,9.14.16,1.94,0,5.46-.16,8.38-.16.81,0,1.24.11,1.24.54s-.32.49-.86.54c-.22,0-.92.11-1.46.16-1.3.27-1.9.87-2.06,2.76-.11,1.73-.16,4.54-.16,7.19Z" transform="translate(-140.15 -67.43)"/><path class="cls-2" d="M254.91,195.94c0-7.79,0-8.65-.16-10.17a2.08,2.08,0,0,0-1.73-2.16,11.24,11.24,0,0,0-1.46-.16c-.71-.06-.81-.33-.81-.6s.27-.48,1-.48c2.92,0,5.2.16,7.25.16l14.06-.06a15.23,15.23,0,0,0,2.76-.21,2.57,2.57,0,0,1,.76-.16c.27,0,.38.21.32.48a21.77,21.77,0,0,0-.38,2.27c-.05,1.19-.11,2.17-.27,5.09,0,.38-.21.76-.54.76s-.48-.22-.54-.65c-.11-.65-.11-1-.27-1.74-.27-1.08-.86-1.73-3.19-1.94-1.79-.11-5.73-.22-7.25-.22-.27,0-.38.16-.38.49v9.9c0,.32.06.43.38.43,1.46,0,4.82,0,6.71-.06,2.65-.1,3.3-.27,3.89-1.19.22-.43.44-.59.65-.59s.38.32.38.59c0,.55-.32,2.6-.38,4.33-.05,1-.11,3.52-.11,4.06s-.16.81-.48.81-.49-.22-.54-.76c-.06-.27-.06-.59-.11-.92-.27-1.46-.81-2.32-3.36-2.49-1.51-.1-5.19-.16-6.7-.16-.27,0-.33.11-.33.38v3.41c0,1.56-.05,3.78,0,5.68.06,3.29.65,4.05,6.17,4.05a14.48,14.48,0,0,0,4.49-.54c1.35-.54,1.89-1.68,2.32-3.84.11-.54.33-.81.65-.81s.44.38.44,1a45,45,0,0,1-.71,6.76c-.38,1.19-.75,1.25-2.54,1.25-7.25,0-10.71-.27-15.84-.27-2.28,0-4.6.16-7.36.16-.92,0-1.14-.27-1.14-.6s.17-.48,1-.48c.48-.06.86-.06,1.4-.16,1.57-.28,1.73-2.11,1.9-5.41,0-1.79,0-4.38,0-7Z" transform="translate(-140.15 -67.43)"/><path class="cls-2" d="M287.53,184.1c.05-1.57.22-2.38.92-2.38.27,0,.49,0,1.84,1,2.32,1.84,9.79,8.23,15.79,13.53,5.35,4.7,7.9,6.86,9.3,8.11l-.27-16.55c-.11-2.6-.43-3.84-2.54-4.17a19.13,19.13,0,0,0-1.95-.21c-.65-.06-.86-.33-.86-.54,0-.38.43-.54.92-.54,1.78,0,5.13.16,7.3.16,1.19,0,3.73-.16,5.68-.16.81,0,1,.21,1,.48s-.1.54-.81.6a10.49,10.49,0,0,0-1.08.11c-1.62.21-2.16.92-2.33,3.89-.43,8.82-.59,18.39-.64,27.8,0,2.7-.33,3.19-1,3.19s-2.49-1.19-6.33-4.33c-3.35-2.81-7.19-6.11-9.52-8.22-2.59-2.32-6.76-5.89-10.92-9.68l.49,15.2c.1,3.24.21,4.59,1.67,5a12.16,12.16,0,0,0,2.44.33c.81.11,1,.27,1,.54s-.32.54-1.19.54c-1.35,0-2.81-.11-6.22-.16-1.35,0-5.3.16-6.92.16-.81,0-1.08-.16-1.08-.54s.22-.49.87-.54c.48-.06.75-.06,1.35-.11,2-.27,2.43-1.35,2.59-5.68C287.31,201.24,287.31,190.37,287.53,184.1Z" transform="translate(-140.15 -67.43)"/><path class="cls-2" d="M350.6,204.16c0,3.57,0,7.73.22,9.74.1,1.19.48,2.37,1.94,2.59a17.44,17.44,0,0,0,1.95.22c.86.11,1.08.32,1.08.65s-.27.43-1.14.43c-3.35,0-8.43-.16-9.13-.16s-5.9.16-7.36.16c-.81,0-1.14-.11-1.14-.49s.44-.54,1-.59,1-.06,1.57-.16c1.08-.22,1.4-1.14,1.56-2.49.22-2,.22-5.3.22-9.9v-18c-1.84,0-5-.05-7.35.11-2.65.16-3.57.81-4.17,2.7a6.73,6.73,0,0,1-.38,1c-.11.33-.27.71-.59.71s-.49-.44-.43-1c.27-2.27.7-4.7,1.08-6.87.11-.7.38-1,.65-1s.64.21,1.4.32a42.08,42.08,0,0,0,5.52.38h21.63a16.54,16.54,0,0,0,2.92-.22c.92-.16,1.3-.27,1.57-.27.54,0,.49.27.49,1.62,0,.54-.33,5.41-.38,6.55-.06.76-.33,1-.6,1s-.48-.27-.54-.81-.05-.86-.05-1.14c-.16-1.46-.76-2.48-3.3-2.75-1.73-.11-4.33-.33-8.22-.33Z" transform="translate(-140.15 -67.43)"/><path class="cls-2" d="M381.33,204.21c0,4.44-.17,7.85.59,8.87s1.57,1.14,5.62,1.14c2.71,0,4-.05,5.36-.54s2.38-1.68,3-4.27c.11-.54.27-1,.71-1s.43.33.43,1a39.28,39.28,0,0,1-1.19,7.24c-.43,1.25-.76,1.25-2.54,1.25-7.3,0-11.79-.27-16.93-.27-2.27,0-4.7.16-7.46.16-.76,0-1.14-.16-1.14-.6,0-.21.27-.48.92-.48.49-.06.6-.06,1.14-.11,1.94-.33,2.16-1.08,2.32-5.41,0-1.84.06-4.43.06-7v-8.22c0-7.79-.06-8.33-.17-9.84-.1-1.3-.54-2.06-1.67-2.38a10.86,10.86,0,0,0-1.79-.27c-.54-.06-1-.16-1-.54s.38-.54,1.35-.54c2.92,0,5.3.16,7.36.16.27,0,6.54-.16,8.27-.16.87,0,1.08.21,1.08.48,0,.44-.43.6-.86.6a8.37,8.37,0,0,0-1.46.21c-1.36.22-1.73,1.09-1.84,2.76s-.16,2.22-.16,10.12Z" transform="translate(-140.15 -67.43)"/><path class="cls-2" d="M404.8,195.94c0-7.79-.05-8.65-.16-10.17a2.07,2.07,0,0,0-1.73-2.16,10.87,10.87,0,0,0-1.46-.16c-.7-.06-.81-.33-.81-.6s.27-.48,1-.48c2.92,0,5.19.16,7.24.16l14.07-.06a15.19,15.19,0,0,0,2.75-.21,2.69,2.69,0,0,1,.76-.16c.27,0,.38.21.33.48a21.77,21.77,0,0,0-.38,2.27c-.06,1.19-.11,2.17-.27,5.09,0,.38-.22.76-.54.76s-.49-.22-.54-.65c-.11-.65-.11-1-.28-1.74-.27-1.08-.86-1.73-3.19-1.94-1.78-.11-5.73-.22-7.24-.22-.27,0-.38.16-.38.49v9.9c0,.32.05.43.38.43,1.46,0,4.81,0,6.7-.06,2.65-.1,3.3-.27,3.9-1.19.21-.43.43-.59.65-.59s.37.32.37.59c0,.55-.32,2.6-.37,4.33-.06,1-.11,3.52-.11,4.06s-.16.81-.49.81-.49-.22-.54-.76c-.05-.27-.05-.59-.11-.92-.27-1.46-.81-2.32-3.35-2.49-1.52-.1-5.19-.16-6.71-.16-.27,0-.32.11-.32.38v3.41c0,1.56-.06,3.78,0,5.68.05,3.29.65,4.05,6.16,4.05a14.44,14.44,0,0,0,4.49-.54c1.35-.54,1.9-1.68,2.33-3.84.11-.54.32-.81.65-.81s.43.38.43,1a46.53,46.53,0,0,1-.7,6.76c-.38,1.19-.76,1.25-2.55,1.25-7.24,0-10.7-.27-15.84-.27-2.27,0-4.6.16-7.36.16-.92,0-1.13-.27-1.13-.6s.16-.48,1-.48c.49-.06.87-.06,1.41-.16,1.57-.28,1.73-2.11,1.89-5.41,0-1.79.05-4.38.05-7Z" transform="translate(-140.15 -67.43)"/><path class="cls-2" d="M477.55,211.73c.38,3,1,4.22,2.6,4.65a8.34,8.34,0,0,0,2.21.33c.71.11.87.27.87.59s-.22.49-1,.49c-4.7,0-7.57.05-14-.27-.81,0-1-.38-1-.6s.22-.37.49-.48c.92-.33,1-.49.81-2.82l-1.46-15.79-9.84,17.26c-1.36,2.43-1.73,2.7-2.11,2.7-.54,0-.76-.38-2.27-2.6-2-3.13-4.49-7.46-6.71-11-.87-1.46-2.76-4.81-3.52-5.94l-1.19,11.84c-.16,2.33-.16,3.24-.16,3.95,0,1.46.44,2.16,1.73,2.43.6.11,1.08.16,1.73.22s.92.21.92.48-.21.6-1.08.6c-2.11,0-4.81-.16-6.38-.16s-3.95.16-5.84.16c-.49,0-1-.11-1-.6,0-.27.21-.43.86-.48.49-.06.87-.06,1.41-.11,1.4-.27,2.05-1.08,2.59-4.65l4.28-28.23c.27-1.57.59-2,1.08-2s.92.48,1.94,2l14.06,21.41,13.31-21.68c.92-1.3,1.35-1.73,1.78-1.73.6,0,.81.65,1,1.94Z" transform="translate(-140.15 -67.43)"/><path class="cls-2" d="M494,208.87c-.32,0-.49.32-.54.48l-1.14,2.76a9.58,9.58,0,0,0-.81,2.87c0,1.57,2.06,1.62,3.3,1.73.7,0,.87.27.87.48,0,.38-.27.6-.92.6-2.38,0-4-.16-6.76-.16-.54,0-3.68.16-6,.16-.75,0-1-.22-1-.54s.27-.54.87-.54c2.32-.27,3.57-.92,5-4.11l13-27.69c1.14-2.49,1.68-3.19,2.27-3.19s1,.7,1.9,2.54c1.19,2.65,9.57,20.22,12.81,27.36,1.68,3.47,2.54,4.71,4.38,5,.44.05.81.11,1.08.11.6,0,.92.27.92.54s-.43.54-1,.54c-5.46-.06-11.09-.11-13.95-.16-.65,0-1-.22-1-.49s.33-.43.65-.54.92-.22.65-.81l-3-6.65a.47.47,0,0,0-.43-.27Zm9.63-4.28c.32,0,.32-.11.27-.21l-4.27-9.68c-.17-.27-.17-.17-.28.05l-4,9.63c-.05.16.06.21.16.21Z" transform="translate(-140.15 -67.43)"/><path class="cls-2" d="M527.87,184.1c0-1.57.21-2.38.92-2.38.27,0,.48,0,1.84,1,2.32,1.84,9.78,8.23,15.79,13.53,5.35,4.7,7.89,6.86,9.3,8.11l-.27-16.55c-.11-2.6-.43-3.84-2.54-4.17a19.13,19.13,0,0,0-1.95-.21c-.65-.06-.87-.33-.87-.54,0-.38.44-.54.92-.54,1.79,0,5.14.16,7.3.16,1.19,0,3.74-.16,5.68-.16.81,0,1,.21,1,.48s-.11.54-.81.6a9.88,9.88,0,0,0-1.08.11c-1.62.21-2.17.92-2.33,3.89-.43,8.82-.59,18.39-.65,27.8,0,2.7-.32,3.19-1,3.19s-2.49-1.19-6.33-4.33c-3.35-2.81-7.19-6.11-9.52-8.22-2.6-2.32-6.76-5.89-10.92-9.68l.48,15.2c.11,3.24.22,4.59,1.68,5a12.16,12.16,0,0,0,2.43.33c.81.11,1,.27,1,.54s-.32.54-1.19.54c-1.35,0-2.81-.11-6.22-.16-1.35,0-5.3.16-6.92.16-.81,0-1.08-.16-1.08-.54s.21-.49.86-.54c.49-.06.76-.06,1.35-.11,2-.27,2.44-1.35,2.6-5.68C527.65,201.24,527.65,190.37,527.87,184.1Z" transform="translate(-140.15 -67.43)"/><path class="cls-2" d="M571.79,189.13a2.06,2.06,0,0,1-1.13.64c-.22,0-.33-.1-.33-.32a1.6,1.6,0,0,1,.33-.76,17.57,17.57,0,0,0,2.75-9c0-3.36-1.13-4.44-2.32-5.63-.33-.32-.22-.81.38-.81a22.65,22.65,0,0,1,6.32,1c1.41.54,1.57,1.24,1.57,2.05C579.36,180.91,574.93,186.48,571.79,189.13Z" transform="translate(-140.15 -67.43)"/><path class="cls-2" d="M582.77,217.09a1.76,1.76,0,0,1-1.08-1.9A63.42,63.42,0,0,1,582,208c.11-.87.38-1,.65-1s.43.22.49.7a9.1,9.1,0,0,0,.16,1.25c.65,4,4.6,6.38,8.54,6.38,4.38,0,5.74-2.06,5.74-3.95s-.65-3.41-4.76-6.17l-3-2c-5.78-4-7.35-7.14-7.35-11.46,0-5.41,4.76-9.95,12.6-9.95a27.26,27.26,0,0,1,5.89.54c.76.16,1.63.32,2.44.54.48.11.59.27.59.7-.05,1.73-.16,2.54-.16,6.87,0,.81-.16,1.14-.54,1.14s-.54-.11-.65-.92a7.21,7.21,0,0,0-.76-2.6c-1-1.73-3.51-3.35-6.76-3.35-4.05,0-5.35,2.27-5.35,4.27s1,3.46,3.68,5.14l2.75,1.73c7,4.38,8.93,7,8.93,11.73a9.86,9.86,0,0,1-5.41,9,17.91,17.91,0,0,1-8.76,1.89A20.32,20.32,0,0,1,582.77,217.09Z" transform="translate(-140.15 -67.43)"/><path class="cls-3" d="M587.38,112.48H444.65a65.07,65.07,0,0,1,.66-6.53,59,59,0,0,1,4-14.4A37.27,37.27,0,0,1,451.52,87l.94-1.71L451,86.6a38.72,38.72,0,0,0-3.7,3.67,64.59,64.59,0,0,0-9.15,13.28c-1.56,3-7.37,13.35-7.95,24H587.38a63.48,63.48,0,0,1,63.4,63.4v275.6a62.32,62.32,0,0,1-25.25,50L414,672.51a18.39,18.39,0,0,1-21.94,0l-211.58-156a62.32,62.32,0,0,1-25.25-50V190.92a63.48,63.48,0,0,1,63.4-63.4h138.9c.06-.19,5.74-15,5.74-15a74.78,74.78,0,0,0,1.83-9.24,64.29,64.29,0,0,0,.23-16.13A39,39,0,0,0,364.4,82c-.27-1.21-.43-1.9-.43-1.9L363.75,82a37.2,37.2,0,0,1-.81,5,59,59,0,0,1-5.09,14,72,72,0,0,1-7.22,11.42h-132a78.52,78.52,0,0,0-78.44,78.44v275.6a77.45,77.45,0,0,0,31.36,62.1l211.58,156a33.38,33.38,0,0,0,39.8,0l211.57-156a77.46,77.46,0,0,0,31.37-62.1V190.92A78.53,78.53,0,0,0,587.38,112.48Z" transform="translate(-140.15 -67.43)"/><path class="cls-1" d="M416.61,374.64c12.22,10.58,21.74,16.14,37.73,5.9-12.44,17.6-28.46,24.09-45.53,20-7.63-1.81-11.43-13.29-7.19-21.86h0C404.89,372.11,411.61,370.3,416.61,374.64Z" transform="translate(-140.15 -67.43)"/><path class="cls-1" d="M384.58,374.64c-12.22,10.58-21.74,16.14-37.73,5.9,12.44,17.6,28.46,24.09,45.53,20,7.63-1.81,11.43-13.29,7.19-21.86h0C396.3,372.11,389.58,370.3,384.58,374.64Z" transform="translate(-140.15 -67.43)"/><path class="cls-4" d="M303.94,370.39a26.68,26.68,0,0,0-20.35-10.15,20.39,20.39,0,0,0-13,4.47,20.9,20.9,0,0,0-7.55,15.45,27,27,0,0,0,6.19,18.35,26.69,26.69,0,0,0,20.35,10.16,20.36,20.36,0,0,0,13-4.48,20.91,20.91,0,0,0,7.55-15.44A27,27,0,0,0,303.94,370.39Z" transform="translate(-140.15 -67.43)"/><path class="cls-4" d="M528.79,398.51c8.81-10.88,8.2-26-1.37-33.8a20.39,20.39,0,0,0-13-4.47,26.72,26.72,0,0,0-20.35,10.15,27,27,0,0,0-6.19,18.36,20.91,20.91,0,0,0,7.55,15.44,20.36,20.36,0,0,0,13,4.48A26.73,26.73,0,0,0,528.79,398.51Z" transform="translate(-140.15 -67.43)"/><path class="cls-3" d="M316.31,432.33c12,13.55,26.15,29.49,33.77,38.09a89,89,0,0,1,9.83,13.42l19.26,32.26,16.41-35.87c-2.6-.39-10.15-2-22.31-9.19-9.69-8.62-31.77-34.78-44.17-49.88a21.08,21.08,0,0,1-3.38-20.37c4.59-13.34,2.09-29.23-7.94-41.61a44.35,44.35,0,0,0-34.22-16.74,38.14,38.14,0,0,0-24.17,8.43c-17.2,13.94-19,40.34-4,58.85a44.28,44.28,0,0,0,34.19,16.73,40.34,40.34,0,0,0,7.2-.65,21.32,21.32,0,0,1,4-.36A20.67,20.67,0,0,1,316.31,432.33ZM289.59,414a31.86,31.86,0,0,1-24.48-12.12c-10.66-13.16-9.7-31.68,2.14-41.28a25.73,25.73,0,0,1,16.34-5.66,31.87,31.87,0,0,1,24.48,12.13c10.66,13.16,9.7,31.67-2.14,41.27A25.73,25.73,0,0,1,289.59,414Z" transform="translate(-140.15 -67.43)"/><path class="cls-3" d="M418.23,527.51l-16.13,27L496.75,713c2.09-12.35-5.43-25.75-5.43-25.75Z" transform="translate(-140.15 -67.43)"/><path class="cls-2" d="M308.07,367.05a31.87,31.87,0,0,0-24.48-12.13,25.73,25.73,0,0,0-16.34,5.66c-11.84,9.6-12.8,28.12-2.14,41.28A31.86,31.86,0,0,0,289.59,414a25.73,25.73,0,0,0,16.34-5.66C317.77,398.72,318.73,380.21,308.07,367.05Zm-18.48,41.62a26.69,26.69,0,0,1-20.35-10.16,27,27,0,0,1-6.19-18.35,20.9,20.9,0,0,1,7.55-15.45,20.39,20.39,0,0,1,13-4.47,26.68,26.68,0,0,1,20.35,10.15,27,27,0,0,1,6.19,18.36,20.91,20.91,0,0,1-7.55,15.44A20.36,20.36,0,0,1,289.59,408.67Z" transform="translate(-140.15 -67.43)"/><path class="cls-3" d="M574.21,329.18a31.08,31.08,0,0,0-17.41-5.5c-11.1,0-21.26,6.18-28.63,13a20.71,20.71,0,0,1-13.88,5.8,44.25,44.25,0,0,0-34,16.69c-10,12.38-12.53,28.27-7.94,41.61a21.08,21.08,0,0,1-3.38,20.37c-12.4,15.09-34.47,41.26-44.17,49.88-15.26,9-23.39,9.32-23.39,9.32L306.7,687.28s-7.52,13.4-5.42,25.75l136.84-229.2a88.79,88.79,0,0,1,9.8-13.39l33.73-38a20.84,20.84,0,0,1,15.7-6.94,22.38,22.38,0,0,1,4,.35,39.23,39.23,0,0,0,7.1.64,44.28,44.28,0,0,0,34.19-16.73c15-18.51,13.21-44.91-4-58.85l0,0a4.29,4.29,0,0,1-.07-6.61c4.75-4.06,11.14-8,18.11-8a19.07,19.07,0,0,1,10.83,3.46,6.15,6.15,0,0,0,3.49,1.07,6.25,6.25,0,0,0,5.73-3.75A6.42,6.42,0,0,0,574.21,329.18Zm-41.3,72.68A31.86,31.86,0,0,1,508.43,414a25.69,25.69,0,0,1-16.33-5.66c-11.85-9.6-12.81-28.11-2.15-41.27a31.9,31.9,0,0,1,24.48-12.13,25.73,25.73,0,0,1,16.34,5.66C542.61,370.18,543.58,388.7,532.91,401.86Z" transform="translate(-140.15 -67.43)"/><path class="cls-2" d="M577.15,324.76a36.33,36.33,0,0,0-20.35-6.39c-10.75,0-22.21,5.12-32.24,14.42a15.36,15.36,0,0,1-10.28,4.38,49.35,49.35,0,0,0-38.17,18.67c-10.78,13.3-14.16,31.19-8.84,46.68a15.73,15.73,0,0,1-2.45,15.26c-15.28,18.6-34.53,41.07-43.22,49-13.29,7.73-20.48,8.32-20.55,8.33l-1.53.11-2.63-.12s-7.18-.59-20.47-8.32c-8.69-7.88-27.94-30.35-43.22-49a15.73,15.73,0,0,1-2.45-15.26c5.32-15.49,1.94-33.38-8.84-46.68a49.37,49.37,0,0,0-38.35-18.71A43.22,43.22,0,0,0,256,346.75a43.71,43.71,0,0,0-16,31.47,49.93,49.93,0,0,0,11.25,34.85,49.32,49.32,0,0,0,38.32,18.69,45.28,45.28,0,0,0,8.16-.74,16.85,16.85,0,0,1,3-.27,15.42,15.42,0,0,1,11.57,5.1c12,13.55,26.15,29.5,33.78,38.1a84.27,84.27,0,0,1,9.24,12.62L376.48,522,302,684.9c-1.05,2-8.17,15.73-5.91,29l2.41,14.21,7.39-12.38L399,559.7l93.17,156,7.39,12.38L502,713.92c2.26-13.29-4.85-27.07-5.91-29L421.54,522l21.14-35.42A83.69,83.69,0,0,1,451.9,474c7.61-8.57,21.73-24.49,33.73-38a15.62,15.62,0,0,1,11.72-5.15,17.15,17.15,0,0,1,3,.27,45,45,0,0,0,8.05.72,49.32,49.32,0,0,0,38.32-18.69A49.88,49.88,0,0,0,558,378.22a43.79,43.79,0,0,0-15.11-30.72c3.56-2.87,8.57-5.95,13.74-5.95a13.8,13.8,0,0,1,7.86,2.56,11.55,11.55,0,0,0,17-4.94A11.79,11.79,0,0,0,577.15,324.76ZM576.68,337a6.25,6.25,0,0,1-5.73,3.75,6.15,6.15,0,0,1-3.49-1.07,19.07,19.07,0,0,0-10.83-3.46c-7,0-13.36,3.93-18.11,8a4.29,4.29,0,0,0,.07,6.61l0,0c17.2,13.94,19,40.34,4,58.85a44.28,44.28,0,0,1-34.19,16.73,39.23,39.23,0,0,1-7.1-.64,22.38,22.38,0,0,0-4-.35,20.84,20.84,0,0,0-15.7,6.94l-33.73,38a88.79,88.79,0,0,0-9.8,13.39L301.28,713c-2.1-12.35,5.42-25.75,5.42-25.75l94.66-206.92s8.13-.35,23.39-9.32c9.7-8.62,31.77-34.79,44.17-49.88a21.08,21.08,0,0,0,3.38-20.37c-4.59-13.34-2.09-29.23,7.94-41.61a44.25,44.25,0,0,1,34-16.69,20.71,20.71,0,0,0,13.88-5.8c7.37-6.83,17.53-13,28.63-13a31.08,31.08,0,0,1,17.41,5.5A6.42,6.42,0,0,1,576.68,337ZM496.75,713,402.1,554.52l16.13-27,73.09,159.77S498.84,700.68,496.75,713ZM289.59,426.45a44.28,44.28,0,0,1-34.19-16.73c-15-18.51-13.21-44.91,4-58.85a38.14,38.14,0,0,1,24.17-8.43,44.35,44.35,0,0,1,34.22,16.74c10,12.38,12.53,28.27,7.94,41.61a21.08,21.08,0,0,0,3.38,20.37c12.4,15.1,34.48,41.26,44.17,49.88,12.16,7.15,19.71,8.8,22.31,9.19L379.17,516.1l-19.26-32.26a89,89,0,0,0-9.83-13.42c-7.62-8.6-21.77-24.54-33.77-38.09a20.67,20.67,0,0,0-15.55-6.89,21.32,21.32,0,0,0-4,.36A40.34,40.34,0,0,1,289.59,426.45Z" transform="translate(-140.15 -67.43)"/><path class="cls-2" d="M514.43,354.92A31.9,31.9,0,0,0,490,367.05c-10.66,13.16-9.7,31.67,2.15,41.27A25.69,25.69,0,0,0,508.43,414a31.86,31.86,0,0,0,24.48-12.12c10.67-13.16,9.7-31.68-2.14-41.28A25.73,25.73,0,0,0,514.43,354.92Zm-19,49.27a20.91,20.91,0,0,1-7.55-15.44,27,27,0,0,1,6.19-18.36,26.72,26.72,0,0,1,20.35-10.15,20.39,20.39,0,0,1,13,4.47c9.57,7.76,10.18,22.92,1.37,33.8a26.73,26.73,0,0,1-20.36,10.16A20.36,20.36,0,0,1,495.44,404.19Z" transform="translate(-140.15 -67.43)"/><path class="cls-2" d="M409,518.6a11.41,11.41,0,1,0-10.76,15.2,11.19,11.19,0,0,0,3.79-.65A11.42,11.42,0,0,0,409,518.6Zm-6.58-2.1-.1-.08Zm-6.59-.94a7.27,7.27,0,0,1,2.41-.41,6.94,6.94,0,0,1,2.35.43l-8,11.34a7.19,7.19,0,0,1,3.21-11.36Zm-1.78,12.72.1.07Zm6.59.93a7,7,0,0,1-2.4.42,7.25,7.25,0,0,1-2.18-.34L404,518a7,7,0,0,1,1.07,2A7.23,7.23,0,0,1,400.64,529.21Z" transform="translate(-140.15 -67.43)"/><path class="cls-3" d="M276.55,299.33a10.35,10.35,0,0,1-2.61,7.18c-3.89,4.63-6.91,4-19.66,3.89a2.19,2.19,0,0,1-1.61-.54c-.47-.53-.47-1.54-.47-3.75V266.59c0-1.61.13-2.62.4-2.89.67-.67,2.15-.53,7.25-.46,1.74,0,3.15,0,4.23-.07a11.21,11.21,0,0,1,7.84,2.61c4.36,3.76,5.77,12.82,1.68,18.25-.94,1.28-.94,1.81.14,3.09a12.06,12.06,0,0,1,2.88,8.52C276.55,296.51,276.55,297.79,276.55,299.33Zm-11.94-17.78a3.17,3.17,0,0,0,1.88-1.41,8.43,8.43,0,0,0,1-4.09l-.41-2a3.7,3.7,0,0,0-3.48-2.82c-1.75-.14-2.55.4-2.82,2.08C260.32,276.59,259.91,283.09,264.61,281.55Zm2.89,11.07c-.74-2.08-3.36-3.62-5.24-2.75s-1.54,1.81-1.54,6.37c0,5-.33,6,2,6.11,2.08.07,3.49-.61,4.3-2.08A9,9,0,0,0,267.5,292.62Z" transform="translate(-140.15 -67.43)"/><path class="cls-3" d="M333.9,310c-.6.6-5.36.4-5.9.4a2.1,2.1,0,0,1-1.34-.47c-.61-.54-.67-1.54-.94-3.69-.14-1-.2-1.81-.34-2.35s-.2-3.89-2.55-4a3.29,3.29,0,0,0-.53-.06c-3.49,0-4,.13-4.43,3.55-.07.54-.4,2.35-.94,5.44a1.57,1.57,0,0,1-1.68,1.47c-2.08.07-3.82.07-5.23,0-1.88-.07-1.41-1.47-1.14-3.42,1.61-9.12,6.37-37.17,7-40.86.4-2.21.94-2.61,3.08-2.61h6.11a3.14,3.14,0,0,1,1.47.4,6.25,6.25,0,0,1,.94,2.75c1.88,11.14,6.65,39.25,6.71,39.78C334.51,308.32,334.44,309.53,333.9,310Zm-10.33-19.53c-.13-1.2-.87-4.76-.87-5a5.33,5.33,0,0,0-.4-1,.77.77,0,0,0-1.41,0,24.13,24.13,0,0,0-1.07,6.17,4.37,4.37,0,0,0-.07.88c0,1,3.76.94,3.89.06A9.68,9.68,0,0,0,323.57,290.47Z" transform="translate(-140.15 -67.43)"/><path class="cls-3" d="M390.79,309a1.09,1.09,0,0,1-1,1.34,36.32,36.32,0,0,1-6,.07c-1.48-.2-1.68-1.75-2.08-3.62-.2-1-.67-2.82-1.34-5.44L379,295.91c-.26-1.28-.6-3-2.55-2.75s-1.81,2.08-1.87,4.16v9.46c0,2,.26,3.55-1.61,3.62-1.55.07-3.16.07-4.77,0-1.81-.07-1.54-1.68-1.54-3.89V266.86c0-1.68.13-2.69.47-3,.6-.6,2.55-.47,6.44-.47h3.56a18.94,18.94,0,0,1,5.77.8,8.39,8.39,0,0,1,6.44,7.79c.06,1.81.06,5.77,0,11.94a7.85,7.85,0,0,1-1.95,4.76,4.6,4.6,0,0,0-.74,4.23c.61,2.14,1.81,6.71,3.62,13.82A12.82,12.82,0,0,1,390.79,309Zm-8.86-33.75c-.14-2.14-1-3.08-3.22-3.62a8.92,8.92,0,0,1-1-.2c-3.75-.47-3,1.34-3,6.91,0,2.95.07,4.83.07,5a2,2,0,0,0,1.68,2.15,4.33,4.33,0,0,0,5.36-3.35c.07-.41.14-.67.14-.81Z" transform="translate(-140.15 -67.43)"/><path class="cls-3" d="M446.39,299.33a10.31,10.31,0,0,1-2.62,7.18c-3.89,4.63-6.91,4-19.65,3.89a2.18,2.18,0,0,1-1.61-.54c-.47-.53-.47-1.54-.47-3.75V266.59c0-1.61.13-2.62.4-2.89.67-.67,2.15-.53,7.25-.46,1.74,0,3.15,0,4.22-.07a11.23,11.23,0,0,1,7.85,2.61c4.36,3.76,5.77,12.82,1.68,18.25-.94,1.28-.94,1.81.13,3.09a12,12,0,0,1,2.89,8.52C446.39,296.51,446.39,297.79,446.39,299.33Zm-11.94-17.78a3.2,3.2,0,0,0,1.88-1.41,8.42,8.42,0,0,0,1-4.09l-.4-2a3.72,3.72,0,0,0-3.49-2.82c-1.74-.14-2.55.4-2.82,2.08C430.16,276.59,429.75,283.09,434.45,281.55Zm2.88,11.07c-.73-2.08-3.35-3.62-5.23-2.75s-1.54,1.81-1.54,6.37c0,5-.34,6,2,6.11,2.08.07,3.49-.61,4.29-2.08A8.94,8.94,0,0,0,437.33,292.62Z" transform="translate(-140.15 -67.43)"/><path class="cls-3" d="M499.25,308.92c-.14,1.61-1.75,1.48-3.16,1.48H481.53a4.27,4.27,0,0,1-2.68-.54c-.6-.53-.54-1.41-.54-3.89V266.92c0-3.35.07-3.48,3.36-3.48h14.49a5.13,5.13,0,0,1,2.75.47c.6.6.54,3.95.4,5.5s-1.54,1.47-3.49,1.47h-6.64c-2.21.07-2.82.74-2.95,2.82-.07,2.28-.07,4.5.07,6.64a3.07,3.07,0,0,0,.6,2c.81.74,2.28.67,4.36.67a20.23,20.23,0,0,1,2.35.07c1.61,0,2,.47,2.08,2.08a28.34,28.34,0,0,1-.07,4.22,1.37,1.37,0,0,1-1.47,1.48c-1,.07-2.55.07-4.5.07-2.55,0-3.22.33-3.35,3.22a46.55,46.55,0,0,0-.07,5.5c.13,2.14.74,2.82,2.95,2.88h6.58c2,.07,3.35-.13,3.55,1.41A24.74,24.74,0,0,1,499.25,308.92Z" transform="translate(-140.15 -67.43)"/><path class="cls-3" d="M555.93,309a1.09,1.09,0,0,1-1,1.34,36.31,36.31,0,0,1-6,.07c-1.47-.2-1.68-1.75-2.08-3.62-.2-1-.67-2.82-1.34-5.44l-1.27-5.43c-.27-1.28-.61-3-2.55-2.75s-1.81,2.08-1.88,4.16v9.46c0,2,.27,3.55-1.61,3.62-1.54.07-3.15.07-4.76,0-1.82-.07-1.55-1.68-1.55-3.89V266.86c0-1.68.14-2.69.47-3,.6-.6,2.55-.47,6.44-.47h3.56a18.94,18.94,0,0,1,5.77.8,8.39,8.39,0,0,1,6.44,7.79c.07,1.81.07,5.77,0,11.94a7.79,7.79,0,0,1-1.95,4.76,4.6,4.6,0,0,0-.74,4.23c.61,2.14,1.82,6.71,3.63,13.82A12.68,12.68,0,0,1,555.93,309Zm-8.86-33.75c-.13-2.14-1-3.08-3.22-3.62a8.92,8.92,0,0,1-1-.2c-3.75-.47-3,1.34-3,6.91,0,2.95.06,4.83.06,5a2,2,0,0,0,1.68,2.15,4.34,4.34,0,0,0,5.37-3.35c.06-.41.13-.67.13-.81Z" transform="translate(-140.15 -67.43)"/><circle class="cls-1" cx="151.92" cy="221" r="5.47"/><circle class="cls-1" cx="209.15" cy="221" r="5.47"/><circle class="cls-1" cx="265.16" cy="221" r="5.47"/><circle class="cls-1" cx="321.18" cy="221" r="5.47"/><circle class="cls-1" cx="374.73" cy="221" r="5.47"/></svg>